<svg width="148" height="167" viewBox="0 0 148 167" fill="none" xmlns="http://www.w3.org/2000/svg">
<g clip-path="url(#clip0_398_3873)">
<path d="M104.258 137.492C107.844 137.399 115.563 136.859 118.642 136.06C121.72 135.261 125.147 133.944 127.332 131.359L127.381 131.304C131.415 126.461 130.466 119.275 130.421 118.967L130.195 117.347L128.557 117.418C128.248 117.435 120.998 117.815 116.97 122.659C114.106 126.103 113.759 130.726 113.808 133.222C110.774 133.734 107.59 133.933 104.942 133.971H76.6098C88.0143 130.368 98.3264 124.064 107.027 115.374C121.307 101.113 129.169 82.1526 129.169 61.985L129.147 37.3871C129.086 30.6921 125.858 24.5482 120.501 19.6936C126.835 16.4591 131.801 11.6706 131.801 1.80172C131.801 0.809872 130.995 0.00537109 130.002 0.00537109C120.087 0.00537109 114.465 6.12729 112.401 8.94855C109.405 7.77486 101.918 5.44402 89.6972 5.44402C77.476 5.44402 69.9833 7.77486 66.9929 8.94855C64.9348 6.1328 59.3126 0.00537109 49.3977 0.00537109C48.4046 0.00537109 47.599 0.809872 47.599 1.80172C47.599 11.7643 52.4764 16.6134 58.7332 19.8479C53.4751 24.6804 50.3136 30.7637 50.2529 37.3926L50.2198 60.7066L16.3096 133.971H6.0416L4.40844 137.564C4.40844 137.564 101.758 137.564 104.263 137.492H104.258ZM119.734 124.956C121.709 122.587 124.943 121.628 126.945 121.248C126.945 122.526 126.802 124.317 126.212 126.059C125.858 127.094 125.351 128.119 124.612 129.007C122.636 131.376 119.403 132.335 117.406 132.715C117.406 132.627 117.406 132.528 117.406 132.434C117.444 130.379 117.847 127.227 119.734 124.962V124.956ZM23.8354 126.224L29.7666 113.401L53.5799 113.412C81.9672 113.401 105.058 90.3354 105.058 61.985H125.566C125.566 101.698 93.3276 133.894 53.5634 133.894H20.2821L23.0022 128.02L23.8354 126.224ZM42.5781 85.7288L42.7271 85.4147L50.2915 69.0712L51.9302 65.5281L53.5689 61.985H77.3601C77.3601 75.1049 66.717 85.7343 53.5855 85.7453L42.5781 85.7343V85.7288ZM53.5855 89.338C68.6757 89.327 80.9575 77.0556 80.9575 61.985H101.466C101.466 88.4013 80.0306 109.814 53.5855 109.82L31.4384 109.809L31.5874 109.495L40.9229 89.327L53.5965 89.338H53.5855ZM64.7528 12.0619C65.2217 12.9049 66.2866 13.2245 67.1473 12.7837C67.2135 12.7506 72.9958 9.86877 84.599 9.17447C86.188 9.0808 87.8874 9.0257 89.6972 9.0257C91.5069 9.0257 93.2062 9.0808 94.7953 9.17447C106.398 9.86877 112.181 12.7506 112.241 12.7782C113.102 13.2245 114.162 12.9049 114.636 12.0619C114.818 11.7368 118.989 4.56788 128.121 3.67522C127.497 11.0369 123.172 14.5415 117.411 17.1864C116.148 17.765 114.818 18.305 113.439 18.834C112.545 19.1756 111.629 19.5173 110.702 19.8644C102.498 22.9171 93.449 26.2839 89.6861 36.0371C85.9342 26.3886 76.9574 23.0989 68.8191 20.1179C67.7708 19.7322 66.7335 19.352 65.7294 18.9662C64.361 18.4428 63.0368 17.9083 61.7844 17.3242C56.1069 14.6903 51.8695 11.1306 51.2681 3.66971C60.405 4.55686 64.5762 11.7312 64.7583 12.0508L64.7528 12.0619ZM53.8503 37.4146C53.9055 31.3533 57.0725 25.7935 62.2865 21.4734C64.0245 22.1953 65.8121 22.851 67.5887 23.5012C78.0333 27.3253 87.904 30.9401 87.904 46.8317C87.904 47.8236 88.7095 48.6281 89.7027 48.6281C90.6958 48.6281 91.5014 47.8236 91.5014 46.8317C91.5014 30.8574 101.444 27.1545 111.966 23.2422C113.626 22.6251 115.298 22.0024 116.931 21.3246C122.25 25.6667 125.5 31.2817 125.55 37.4146L125.594 58.4639H53.8006L53.8503 37.4146ZM80.2182 38.8694C80.2182 34.0479 76.2897 30.1301 71.4675 30.1301C66.6452 30.1301 62.7168 34.0534 62.7168 38.8694C62.7168 43.6853 66.6452 47.6087 71.4675 47.6087C76.2897 47.6087 80.2182 43.6853 80.2182 38.8694ZM71.4675 44.016C68.626 44.016 66.3142 41.7072 66.3142 38.8694C66.3142 36.0316 68.626 33.7228 71.4675 33.7228C74.309 33.7228 76.6208 36.0316 76.6208 38.8694C76.6208 41.7072 74.309 44.016 71.4675 44.016ZM107.932 47.6142C112.76 47.6142 116.683 43.6909 116.683 38.8749C116.683 34.0589 112.755 30.1356 107.932 30.1356C103.11 30.1356 99.1816 34.0589 99.1816 38.8749C99.1816 43.6909 103.11 47.6142 107.932 47.6142ZM107.932 33.7228C110.774 33.7228 113.086 36.0316 113.086 38.8694C113.086 41.7072 110.774 44.016 107.932 44.016C105.091 44.016 102.779 41.7072 102.779 38.8694C102.779 36.0316 105.091 33.7228 107.932 33.7228ZM146.897 144.248C146.692 144.022 141.76 138.699 135.453 138.699C130.317 138.699 126.096 142.231 124.595 143.664L43.1409 143.653L1.63316 143.664L0 147.257H10.3066L0.744855 167H19.3828C26.9472 167 33.9654 162.603 37.2593 155.803L41.3974 147.257H82.1051C86.8998 147.323 93.3166 147.846 97.8354 149.554C97.7526 151.984 98.0285 156.806 100.991 160.365C105.025 165.209 112.269 165.589 112.578 165.606L114.217 165.677L114.443 164.057C114.487 163.754 115.436 156.563 111.403 151.72C109.35 149.257 106.47 147.945 104.092 147.257H124.601C126.101 148.689 130.322 152.221 135.459 152.221C141.765 152.221 146.692 146.898 146.902 146.672L148.006 145.46L146.902 144.248H146.897ZM108.633 154.018C110.608 156.387 110.956 159.737 110.967 161.776C108.964 161.396 105.731 160.437 103.756 158.068C102.156 156.145 101.62 153.577 101.471 151.593C101.438 151.13 101.422 150.695 101.422 150.315C102.724 150.563 104.539 151.059 106.194 152.023C107.088 152.541 107.938 153.191 108.628 154.023L108.633 154.018ZM19.3828 163.407H6.483L14.3012 147.257H37.3973L34.0151 154.238C31.317 159.809 25.5734 163.407 19.3773 163.407H19.3828ZM135.453 148.629C132.364 148.629 129.561 146.755 127.988 145.46C129.561 144.165 132.364 142.292 135.453 142.292C138.543 142.292 141.346 144.165 142.918 145.46C141.346 146.755 138.543 148.629 135.453 148.629Z" fill="#434551" fill-opacity="0.25"/>
<path d="M40.9118 89.3272L53.5854 89.3382C68.6756 89.3272 80.9575 77.0558 80.9575 61.9852V58.4641H51.2571L50.2915 60.5525L48.6528 64.0956L47.0141 67.6387L36.9779 89.3272H40.9229H40.9118ZM50.2805 69.0769L51.9192 65.5338L53.5578 61.9907H77.3491C77.3491 75.1107 66.7059 85.74 53.5744 85.751L42.5671 85.74L50.275 69.0824L50.2805 69.0769Z" fill="#3850AE"/>
</g>
<defs>
<clipPath id="clip0_398_3873">
<rect width="148" height="167" fill="white"/>
</clipPath>
</defs>
</svg>
