<svg width="148" height="167" viewBox="0 0 148 167" fill="none" xmlns="http://www.w3.org/2000/svg">
<g clip-path="url(#clip0_398_3880)">
<path d="M104.258 137.492C107.844 137.399 115.563 136.859 118.642 136.06C121.72 135.261 125.147 133.944 127.332 131.36L127.381 131.304C131.415 126.461 130.466 119.275 130.421 118.967L130.195 117.347L128.557 117.419C128.248 117.435 120.998 117.815 116.97 122.659C114.106 126.103 113.759 130.726 113.808 133.222C110.774 133.734 107.59 133.933 104.942 133.971H76.6098C88.0143 130.368 98.3264 124.064 107.027 115.374C121.307 101.114 129.169 82.1527 129.169 61.9851L129.147 37.3872C129.086 30.6922 125.858 24.5483 120.501 19.6937C126.835 16.4592 131.801 11.6708 131.801 1.80184C131.801 0.809994 130.995 0.00549316 130.002 0.00549316C120.087 0.00549316 114.465 6.12741 112.401 8.94867C109.405 7.77499 101.918 5.44414 89.6972 5.44414C77.476 5.44414 69.9833 7.77499 66.9929 8.94867C64.9348 6.13292 59.3126 0.00549316 49.3977 0.00549316C48.4046 0.00549316 47.599 0.809994 47.599 1.80184C47.599 11.7644 52.4764 16.6135 58.7332 19.848C53.4751 24.6805 50.3136 30.7639 50.2529 37.3927L50.2198 60.7067L16.3096 133.971H6.0416L4.40844 137.564C4.40844 137.564 101.758 137.564 104.263 137.492H104.258ZM119.734 124.957C121.709 122.587 124.943 121.628 126.945 121.248C126.945 122.527 126.802 124.317 126.212 126.059C125.858 127.095 125.351 128.119 124.612 129.007C122.636 131.376 119.403 132.335 117.406 132.715C117.406 132.627 117.406 132.528 117.406 132.434C117.444 130.379 117.847 127.227 119.734 124.962V124.957ZM23.8354 126.224L29.7666 113.402L53.5799 113.413C81.9672 113.402 105.058 90.3355 105.058 61.9851H125.566C125.566 101.698 93.3276 133.894 53.5634 133.894H20.2821L23.0022 128.02L23.8354 126.224ZM42.5781 85.7289L42.7271 85.4148L50.2915 69.0713L51.9302 65.5282L53.5689 61.9851H77.3601C77.3601 75.1051 66.717 85.7344 53.5855 85.7454L42.5781 85.7344V85.7289ZM53.5855 89.3381C68.6757 89.3271 80.9575 77.0557 80.9575 61.9851H101.466C101.466 88.4014 80.0306 109.814 53.5855 109.82L31.4384 109.809L31.5874 109.495L40.9229 89.3271L53.5965 89.3381H53.5855ZM64.7528 12.062C65.2217 12.9051 66.2866 13.2247 67.1473 12.7838C67.2135 12.7508 72.9958 9.86889 84.599 9.1746C86.188 9.08092 87.8874 9.02582 89.6972 9.02582C91.5069 9.02582 93.2062 9.08092 94.7953 9.1746C106.398 9.86889 112.181 12.7508 112.241 12.7783C113.102 13.2247 114.162 12.9051 114.636 12.062C114.818 11.7369 118.989 4.568 128.121 3.67534C127.497 11.0371 123.172 14.5416 117.411 17.1865C116.148 17.7651 114.818 18.3051 113.439 18.8341C112.545 19.1758 111.629 19.5174 110.702 19.8645C102.498 22.9172 93.449 26.284 89.6861 36.0372C85.9342 26.3887 76.9574 23.0991 68.8191 20.118C67.7708 19.7323 66.7335 19.3521 65.7294 18.9664C64.361 18.4429 63.0368 17.9084 61.7844 17.3243C56.1069 14.6904 51.8695 11.1307 51.2681 3.66983C60.405 4.55698 64.5762 11.7314 64.7583 12.051L64.7528 12.062ZM53.8503 37.4148C53.9055 31.3535 57.0725 25.7936 62.2865 21.4735C64.0245 22.1954 65.8121 22.8511 67.5887 23.5013C78.0333 27.3255 87.904 30.9402 87.904 46.8318C87.904 47.8237 88.7095 48.6282 89.7027 48.6282C90.6958 48.6282 91.5014 47.8237 91.5014 46.8318C91.5014 30.8575 101.444 27.1546 111.966 23.2423C113.626 22.6252 115.298 22.0025 116.931 21.3248C122.25 25.6669 125.5 31.2818 125.55 37.4148L125.594 58.464H53.8006L53.8503 37.4148ZM80.2182 38.8695C80.2182 34.048 76.2897 30.1302 71.4675 30.1302C66.6452 30.1302 62.7168 34.0535 62.7168 38.8695C62.7168 43.6855 66.6452 47.6088 71.4675 47.6088C76.2897 47.6088 80.2182 43.6855 80.2182 38.8695ZM71.4675 44.0161C68.626 44.0161 66.3142 41.7073 66.3142 38.8695C66.3142 36.0317 68.626 33.7229 71.4675 33.7229C74.309 33.7229 76.6208 36.0317 76.6208 38.8695C76.6208 41.7073 74.309 44.0161 71.4675 44.0161ZM107.932 47.6143C112.76 47.6143 116.683 43.691 116.683 38.875C116.683 34.059 112.755 30.1357 107.932 30.1357C103.11 30.1357 99.1816 34.059 99.1816 38.875C99.1816 43.691 103.11 47.6143 107.932 47.6143ZM107.932 33.7229C110.774 33.7229 113.086 36.0317 113.086 38.8695C113.086 41.7073 110.774 44.0161 107.932 44.0161C105.091 44.0161 102.779 41.7073 102.779 38.8695C102.779 36.0317 105.091 33.7229 107.932 33.7229ZM146.897 144.248C146.692 144.022 141.76 138.699 135.453 138.699C130.317 138.699 126.096 142.231 124.595 143.664L43.1409 143.653L1.63316 143.664L0 147.257H10.3066L0.744855 167H19.3828C26.9472 167 33.9654 162.603 37.2593 155.803L41.3974 147.257H82.1051C86.8998 147.323 93.3166 147.846 97.8354 149.554C97.7526 151.984 98.0285 156.806 100.991 160.366C105.025 165.209 112.269 165.589 112.578 165.606L114.217 165.678L114.443 164.057C114.487 163.754 115.436 156.564 111.403 151.72C109.35 149.257 106.47 147.945 104.092 147.257H124.601C126.101 148.689 130.322 152.221 135.459 152.221C141.765 152.221 146.692 146.898 146.902 146.673L148.006 145.46L146.902 144.248H146.897ZM108.633 154.018C110.608 156.387 110.956 159.737 110.967 161.776C108.964 161.396 105.731 160.437 103.756 158.068C102.156 156.145 101.62 153.577 101.471 151.593C101.438 151.13 101.422 150.695 101.422 150.315C102.724 150.563 104.539 151.059 106.194 152.023C107.088 152.541 107.938 153.191 108.628 154.023L108.633 154.018ZM19.3828 163.407H6.483L14.3012 147.257H37.3973L34.0151 154.238C31.317 159.809 25.5734 163.407 19.3773 163.407H19.3828ZM135.453 148.629C132.364 148.629 129.561 146.755 127.988 145.46C129.561 144.165 132.364 142.292 135.453 142.292C138.543 142.292 141.346 144.165 142.918 145.46C141.346 146.755 138.543 148.629 135.453 148.629Z" fill="#434551" fill-opacity="0.25"/>
<path d="M105.063 61.9852V58.4641H77.3601V61.9852C77.3601 75.1052 66.717 85.7345 53.5854 85.7455L42.5781 85.7345H38.6331L25.8271 113.407H29.7721L53.5854 113.418C81.9727 113.407 105.063 90.3411 105.063 61.9907V61.9852ZM31.4329 109.809L40.9118 89.3272L53.5854 89.3382C68.6812 89.3272 80.9575 77.0558 80.9575 61.9852H101.466C101.466 88.4015 80.0306 109.814 53.5854 109.82L31.4384 109.809H31.4329Z" fill="#74BCB6"/>
</g>
<defs>
<clipPath id="clip0_398_3880">
<rect width="148" height="167" fill="white"/>
</clipPath>
</defs>
</svg>
