<svg width="387" height="128" viewBox="0 0 387 128" fill="none" xmlns="http://www.w3.org/2000/svg">
<g clip-path="url(#clip0_2_24)">
<path d="M130.241 45.1995C128.188 45.1995 126.281 44.7604 124.533 43.8863C122.781 43.0123 121.271 41.8581 119.995 40.432C118.72 39.0059 117.729 37.3791 117.026 35.5515C116.319 33.724 115.968 31.8421 115.968 29.9016C115.968 27.8482 116.311 25.8868 116.997 24.0216C117.683 22.1565 118.632 20.5213 119.853 19.1119C121.07 17.7026 122.517 16.5818 124.19 15.7454C125.863 14.909 127.69 14.4908 129.668 14.4908C130.998 14.4908 132.257 14.6831 133.436 15.0595C134.616 15.4401 135.711 15.9629 136.719 16.6278C137.727 17.2927 138.639 18.0664 139.459 18.9405C140.278 19.8145 140.972 20.7304 141.541 21.6797V2.9567H143.482V41.5486C143.482 42.385 143.825 42.8032 144.51 42.8032V44.6307C144.398 44.6684 144.243 44.6893 144.055 44.6893C143.369 44.6893 142.8 44.4342 142.34 43.9198C141.884 43.4054 141.654 42.8283 141.654 42.1801V38.5835C141.044 39.5747 140.312 40.478 139.454 41.2935C138.597 42.1132 137.677 42.8074 136.686 43.3761C135.695 43.9449 134.649 44.3965 133.545 44.7186C132.441 45.0406 131.337 45.2037 130.233 45.2037L130.241 45.1995ZM130.467 43.3719C131.571 43.3719 132.751 43.1419 134.005 42.6861C135.26 42.2303 136.431 41.6113 137.518 40.8293C138.601 40.0514 139.517 39.1355 140.257 38.09C140.998 37.0445 141.428 35.9488 141.541 34.8071V24.5904C141.123 23.4487 140.504 22.3739 139.684 21.366C138.865 20.3582 137.924 19.4841 136.857 18.7397C135.791 17.9995 134.658 17.4098 133.462 16.9707C132.261 16.5358 131.09 16.3141 129.949 16.3141C128.121 16.3141 126.465 16.7031 124.98 17.4851C123.496 18.2672 122.241 19.2918 121.212 20.5673C120.184 21.8428 119.385 23.2898 118.816 24.9082C118.243 26.5267 117.959 28.1911 117.959 29.9016C117.959 31.6121 118.281 33.3936 118.929 35.0121C119.577 36.6305 120.46 38.0566 121.585 39.2945C122.705 40.5323 124.031 41.5193 125.553 42.2637C127.076 43.0039 128.711 43.3761 130.463 43.3761L130.467 43.3719Z" fill="black"/>
<path d="M152.845 7.74932V2.9567H154.786V7.7535H152.845V7.74932ZM152.845 44.6307V14.9424H154.786V44.6266H152.845V44.6307Z" fill="black"/>
<path d="M176.194 45.1451C174.14 45.1451 172.233 44.706 170.485 43.832C168.733 42.9579 167.231 41.8037 165.977 40.3776C164.722 38.9515 163.739 37.3247 163.037 35.4972C162.33 33.6696 161.979 31.8044 161.979 29.9016C161.979 27.8858 162.313 25.9537 162.978 24.1095C163.643 22.2652 164.584 20.6258 165.805 19.1997C167.022 17.7737 168.478 16.632 170.171 15.7747C171.865 14.9173 173.739 14.4908 175.796 14.4908C177.088 14.4908 178.31 14.6831 179.451 15.0595C180.593 15.4401 181.659 15.9545 182.646 16.6027C183.638 17.2509 184.549 18.0121 185.386 18.8861C186.222 19.7601 186.983 20.6927 187.669 21.6839V14.9466H189.497V45.5466C189.497 47.5624 189.124 49.3063 188.384 50.77C187.644 52.2337 186.653 53.4632 185.415 54.4502C184.177 55.4413 182.743 56.1732 181.103 56.6499C179.468 57.1267 177.753 57.3651 175.964 57.3651C174.174 57.3651 172.66 57.1936 171.313 56.8507C169.962 56.5077 168.775 56.031 167.746 55.4246C166.717 54.814 165.814 54.0822 165.036 53.229C164.254 52.3717 163.58 51.4307 163.008 50.402L164.434 49.6032C165.651 51.7318 167.29 53.275 169.343 54.2285C171.397 55.1778 173.605 55.6546 175.964 55.6546C177.561 55.6546 179.054 55.4455 180.447 55.0273C181.835 54.6091 183.065 53.9692 184.127 53.1161C185.193 52.2588 186.03 51.2049 186.64 49.9461C187.247 48.6915 187.552 47.2236 187.552 45.5508V38.5877C186.941 39.5788 186.209 40.4696 185.352 41.2726C184.495 42.0755 183.575 42.7572 182.584 43.3259C181.593 43.8989 180.555 44.3464 179.472 44.6684C178.389 44.9904 177.293 45.1535 176.189 45.1535L176.194 45.1451ZM176.478 43.3719C177.808 43.3719 179.113 43.1168 180.388 42.6025C181.664 42.0881 182.814 41.4231 183.842 40.6034C184.871 39.7838 185.716 38.8721 186.381 37.8642C187.046 36.8563 187.439 35.8359 187.552 34.8113V24.5946C187.096 23.4152 186.456 22.3112 185.641 21.2824C184.821 20.2536 183.901 19.3796 182.872 18.6561C181.843 17.9326 180.739 17.3638 179.56 16.9414C178.381 16.5232 177.18 16.3141 175.964 16.3141C174.061 16.3141 172.367 16.7156 170.882 17.5144C169.398 18.3132 168.143 19.3628 167.114 20.6551C166.086 21.9474 165.308 23.4069 164.772 25.0212C164.237 26.6396 163.974 28.2664 163.974 29.9016C163.974 31.6915 164.296 33.3936 164.944 35.012C165.592 36.6305 166.474 38.0566 167.599 39.2945C168.72 40.5323 170.046 41.5193 171.568 42.2637C173.09 43.0039 174.726 43.3761 176.478 43.3761V43.3719Z" fill="black"/>
<path d="M198.743 7.74932V2.9567H200.684V7.7535H198.743V7.74932ZM198.743 44.6307V14.9424H200.684V44.6266H198.743V44.6307Z" fill="black"/>
<path d="M222.317 43.259C222.242 43.2967 222.05 43.4012 221.744 43.5727C221.439 43.7442 221.029 43.9365 220.515 44.1456C220 44.3547 219.411 44.5346 218.746 44.6893C218.081 44.8398 217.349 44.9193 216.546 44.9193C215.061 44.9193 213.778 44.4927 212.694 43.6354C211.611 42.7781 211.068 41.5695 211.068 40.0096V16.6613H206.844V14.9508H211.068V4.72571H213.008V14.9424H220.03V16.6529H213.008V39.7168C213.083 40.8209 213.502 41.6573 214.263 42.2302C215.024 42.8032 215.898 43.0876 216.889 43.0876C217.495 43.0876 218.077 43.0207 218.629 42.8868C219.181 42.753 219.666 42.6024 220.084 42.431C220.502 42.2595 220.845 42.1006 221.113 41.9459C221.381 41.7953 221.531 41.6991 221.569 41.6615L222.309 43.259H222.317Z" fill="black"/>
<path d="M227.511 7.74932V2.9567H229.452V7.7535H227.511V7.74932ZM227.511 44.6307V14.9424H229.452V44.6266H227.511V44.6307Z" fill="black"/>
<path d="M235.963 43.029L257.886 16.5985H236.306V14.9424H260.11V16.54L238.305 42.9705H259.943V44.6266H235.968V43.029H235.963Z" fill="black"/>
<path d="M273.865 45.1995C272.493 45.1995 271.218 44.9611 270.039 44.4844C268.859 44.0076 267.831 43.3636 266.956 42.5439C266.082 41.7242 265.397 40.7665 264.903 39.6625C264.41 38.5584 264.163 37.3624 264.163 36.0659C264.163 34.7695 264.468 33.6612 265.075 32.6116C265.681 31.566 266.53 30.6627 267.613 29.9016C268.696 29.1405 269.993 28.5508 271.494 28.1326C272.995 27.7144 274.643 27.5053 276.433 27.5053C278.106 27.5053 279.791 27.6391 281.485 27.9068C283.179 28.1744 284.709 28.5717 286.081 29.107V25.9119C286.081 22.9427 285.232 20.5756 283.542 18.8025C281.849 17.0335 279.574 16.1469 276.722 16.1469C275.275 16.1469 273.731 16.4605 272.096 17.0878C270.461 17.7151 268.822 18.6184 267.186 19.7978L266.275 18.3717C270.08 15.783 273.602 14.4908 276.834 14.4908C280.297 14.4908 283.028 15.5196 285.027 17.5729C287.026 19.6263 288.026 22.445 288.026 26.0207V41.5486C288.026 42.385 288.369 42.8032 289.054 42.8032V44.6307C288.941 44.6684 288.837 44.6893 288.741 44.6893H288.486C287.837 44.6893 287.294 44.4509 286.859 43.9742C286.42 43.4974 286.202 42.9161 286.202 42.2344V39.6081C284.83 41.398 283.061 42.7781 280.895 43.7483C278.725 44.7186 276.387 45.2037 273.874 45.2037L273.865 45.1995ZM274.095 43.5434C275.505 43.5434 276.922 43.3552 278.348 42.9705C279.774 42.5899 281.058 42.0672 282.2 41.4022C283.342 40.7373 284.274 39.9678 284.998 39.0895C285.721 38.2155 286.081 37.2829 286.081 36.2917V30.6962C283.112 29.5545 279.954 28.9857 276.604 28.9857C275.045 28.9857 273.614 29.1572 272.322 29.5001C271.03 29.843 269.913 30.3198 268.981 30.9262C268.048 31.5368 267.324 32.2686 266.81 33.1259C266.296 33.9833 266.041 34.9451 266.041 36.0074C266.041 37.0696 266.25 38.0608 266.668 38.9766C267.086 39.8883 267.659 40.6913 268.383 41.3729C269.106 42.0588 269.951 42.5899 270.921 42.9705C271.891 43.351 272.949 43.5434 274.091 43.5434H274.095Z" fill="black"/>
<path d="M309.032 43.259C308.957 43.2967 308.764 43.4012 308.459 43.5727C308.154 43.7442 307.744 43.9365 307.229 44.1456C306.715 44.3547 306.125 44.5346 305.46 44.6893C304.795 44.8398 304.064 44.9193 303.261 44.9193C301.776 44.9193 300.492 44.4927 299.409 43.6354C298.326 42.7781 297.782 41.5695 297.782 40.0096V16.6613H293.558V14.9508H297.782V4.72571H299.723V14.9424H306.744V16.6529H299.723V39.7168C299.798 40.8209 300.216 41.6573 300.977 42.2302C301.738 42.8032 302.612 43.0876 303.604 43.0876C304.21 43.0876 304.791 43.0207 305.343 42.8868C305.895 42.753 306.38 42.6024 306.799 42.431C307.217 42.2595 307.56 42.1006 307.827 41.9459C308.095 41.7953 308.246 41.6991 308.283 41.6615L309.024 43.259H309.032Z" fill="black"/>
<path d="M314.226 7.74932V2.9567H316.167V7.7535H314.226V7.74932ZM314.226 44.6307V14.9424H316.167V44.6266H314.226V44.6307Z" fill="black"/>
<path d="M337.633 45.1995C335.617 45.1995 333.739 44.7897 332.008 43.97C330.277 43.1503 328.763 42.0504 327.471 40.6578C326.178 39.2694 325.166 37.6426 324.447 35.7774C323.723 33.9122 323.364 31.9508 323.364 29.8974C323.364 27.844 323.736 25.8241 324.476 23.9589C325.216 22.0937 326.237 20.4585 327.529 19.0492C328.821 17.6398 330.335 16.5274 332.067 15.7077C333.798 14.8881 335.655 14.4824 337.633 14.4824C339.611 14.4824 341.476 14.8922 343.228 15.7077C344.977 16.5274 346.503 17.6398 347.795 19.0492C349.088 20.4585 350.108 22.0937 350.848 23.9589C351.588 25.8241 351.961 27.8022 351.961 29.8974C351.961 31.9926 351.588 33.9122 350.848 35.7774C350.108 37.6426 349.096 39.2694 347.825 40.6578C346.549 42.0462 345.035 43.1503 343.287 43.97C341.535 44.7897 339.653 45.1995 337.637 45.1995H337.633ZM325.3 29.956C325.3 31.7835 325.622 33.5149 326.27 35.1501C326.919 36.7852 327.793 38.2155 328.897 39.4325C330.001 40.6494 331.301 41.6113 332.807 42.3139C334.308 43.0165 335.897 43.3719 337.574 43.3719C339.251 43.3719 340.895 43.0123 342.396 42.2888C343.898 41.5653 345.211 40.5951 346.336 39.3781C347.457 38.1611 348.343 36.7225 348.991 35.0664C349.64 33.4103 349.962 31.6706 349.962 29.843C349.962 28.0155 349.64 26.2758 348.991 24.6197C348.343 22.9636 347.461 21.5291 346.336 20.308C345.211 19.091 343.902 18.1208 342.396 17.3973C340.891 16.6738 339.306 16.3141 337.629 16.3141C335.952 16.3141 334.375 16.678 332.89 17.3973C331.406 18.1208 330.101 19.0994 328.98 20.3373C327.855 21.5752 326.965 23.0221 326.295 24.674C325.63 26.3301 325.296 28.0908 325.296 29.956H325.3Z" fill="black"/>
<path d="M382.728 44.6307H380.787V28.074C380.787 24.0007 380.206 21.0231 379.048 19.1412C377.885 17.2593 376.049 16.3141 373.54 16.3141C372.206 16.3141 370.876 16.5609 369.542 17.0544C368.208 17.5478 366.983 18.2337 365.862 19.1077C364.737 19.9818 363.75 21.0106 362.893 22.1899C362.035 23.3692 361.416 24.6657 361.036 26.0708V44.6224H359.095V14.9424H360.977V22.3656C361.584 21.1862 362.349 20.1114 363.261 19.1412C364.172 18.171 365.201 17.3429 366.343 16.6571C367.484 15.9712 368.693 15.4401 369.969 15.0595C371.244 14.679 372.545 14.4908 373.879 14.4908C376.999 14.4908 379.253 15.6032 380.645 17.8322C382.034 20.0571 382.728 23.3985 382.728 27.8524V44.6349V44.6307Z" fill="black"/>
<path d="M118.745 94.5267V64.6209H123.471V80.0192L137.56 64.5791H142.792L130.982 77.8236L143.469 94.5267H138.196L128.071 80.7343L123.475 85.5018V94.5267H118.749H118.745Z" fill="black"/>
<path d="M151.306 73.4325V94.5225H146.581V64.5749H150.294L167.42 86.171V64.6167H172.187V94.5225H168.264L151.306 73.4325Z" fill="black"/>
<path d="M191.379 94.7358C189.242 94.7358 187.293 94.3092 185.536 93.4477C183.78 92.5904 182.266 91.4529 181.003 90.031C179.736 88.6133 178.761 86.9865 178.071 85.1589C177.381 83.3314 177.038 81.462 177.038 79.5466C177.038 77.6312 177.402 75.6364 178.134 73.8088C178.866 71.9813 179.87 70.3628 181.149 68.9577C182.429 67.5525 183.947 66.4317 185.704 65.6037C187.46 64.7756 189.38 64.3574 191.462 64.3574C193.545 64.3574 195.548 64.8007 197.305 65.6873C199.061 66.5739 200.566 67.7323 201.817 69.1668C203.067 70.6012 204.038 72.2238 204.728 74.0389C205.418 75.8539 205.761 77.7023 205.761 79.5842C205.761 81.5833 205.401 83.4945 204.686 85.322C203.971 87.1496 202.963 88.7596 201.671 90.1523C200.378 91.5449 198.852 92.6573 197.095 93.4853C195.339 94.3134 193.432 94.7316 191.379 94.7316V94.7358ZM181.848 79.5508C181.848 80.956 182.074 82.3193 182.521 83.6408C182.968 84.9623 183.608 86.1291 184.441 87.1412C185.269 88.1532 186.276 88.9604 187.456 89.5668C188.635 90.1732 189.957 90.4743 191.42 90.4743C192.884 90.4743 194.281 90.1564 195.448 89.525C196.614 88.8935 197.606 88.0571 198.421 87.0157C199.237 85.9744 199.856 84.8076 200.278 83.5154C200.7 82.2231 200.909 80.9016 200.909 79.5508C200.909 78.1163 200.684 76.7446 200.236 75.4398C199.784 74.1309 199.145 72.9808 198.317 71.9813C197.489 70.9818 196.489 70.183 195.322 69.5766C194.155 68.9702 192.855 68.6691 191.42 68.6691C189.902 68.6691 188.551 68.9869 187.372 69.6184C186.193 70.2499 185.193 71.0738 184.378 72.0858C183.562 73.0979 182.935 74.2563 182.5 75.5653C182.065 76.8743 181.848 78.2 181.848 79.5508Z" fill="black"/>
<path d="M220.189 64.7045H224.659L228.331 74.8711L232.045 64.7045H236.473L231.371 78.0327L235.842 89.044L245.164 64.5791H250.354L237.996 94.5267H233.947L228.381 81.1149L222.773 94.5267H218.725L206.367 64.5791H211.515L220.879 89.044L225.349 78.0327L220.201 64.7045H220.189Z" fill="black"/>
<path d="M253.892 94.5267V64.5791H258.617V90.353H274.689V94.5308H253.892V94.5267Z" fill="black"/>
<path d="M299.07 90.3488V94.5267H278.528V64.5791H298.69V68.7569H283.25V77.2799H296.62V81.2027H283.25V90.3572H299.066L299.07 90.3488Z" fill="black"/>
<path d="M303.963 94.5267V64.5791H314.594C317.011 64.5791 319.127 64.9722 320.942 65.7584C322.757 66.5446 324.276 67.6152 325.497 68.966C326.722 70.3168 327.642 71.8976 328.261 73.7126C328.88 75.5277 329.189 77.4598 329.189 79.5131C329.189 81.7924 328.847 83.8499 328.156 85.6942C327.466 87.5385 326.492 89.1109 325.225 90.4199C323.958 91.7289 322.427 92.7409 320.629 93.4561C318.831 94.1712 316.819 94.5308 314.598 94.5308H303.968L303.963 94.5267ZM324.38 79.509C324.38 77.9323 324.163 76.4853 323.728 75.1638C323.293 73.8423 322.653 72.709 321.808 71.768C320.963 70.827 319.939 70.0868 318.73 69.5557C317.522 69.0204 316.141 68.7527 314.598 68.7527H308.693V90.3488H314.598C316.175 90.3488 317.572 90.0728 318.797 89.525C320.018 88.9771 321.047 88.216 321.875 87.2457C322.703 86.2755 323.33 85.1296 323.753 83.8081C324.175 82.4866 324.384 81.0521 324.384 79.5048L324.38 79.509Z" fill="black"/>
<path d="M355.126 90.813C352.596 93.4268 349.685 94.7358 346.394 94.7358C344.395 94.7358 342.543 94.3218 340.828 93.4895C339.113 92.6615 337.62 91.5407 336.357 90.1355C335.09 88.7304 334.099 87.0994 333.384 85.2425C332.669 83.3857 332.309 81.4452 332.309 79.4211C332.309 77.397 332.669 75.4691 333.384 73.6416C334.099 71.814 335.09 70.2123 336.357 68.8322C337.624 67.4563 339.126 66.3648 340.87 65.5619C342.614 64.7589 344.512 64.3616 346.566 64.3616C349.435 64.3616 351.839 64.9596 353.78 66.1557C355.72 67.3518 357.184 68.9326 358.167 70.9023L354.541 73.5161C353.725 71.8851 352.6 70.6639 351.166 69.8484C349.731 69.0329 348.155 68.6231 346.44 68.6231C345.035 68.6231 343.755 68.9242 342.601 69.5306C341.447 70.137 340.464 70.9358 339.649 71.9353C338.833 72.9348 338.206 74.0932 337.771 75.4147C337.336 76.7363 337.118 78.1163 337.118 79.5466C337.118 81.0647 337.365 82.4866 337.859 83.8081C338.352 85.1296 339.025 86.2839 339.883 87.2666C340.74 88.2494 341.761 89.0315 342.94 89.6086C344.119 90.1857 345.399 90.4743 346.779 90.4743C348.297 90.4743 349.752 90.123 351.145 89.4204C352.538 88.7178 353.868 87.6054 355.13 86.0873V82.8797H348.845V79.3793H359.095V94.5225H355.13V90.8088L355.126 90.813Z" fill="black"/>
<path d="M385.036 90.3488V94.5267H364.494V64.5791H384.656V68.7569H369.216V77.2799H382.586V81.2027H369.216V90.3572H385.032L385.036 90.3488Z" fill="black"/>
<path d="M192.838 123.22C191.914 123.22 191.098 122.998 190.392 122.559C189.685 122.12 189.129 121.547 188.719 120.84V127.69H186.297V111.476H188.434V113.547C188.873 112.857 189.442 112.305 190.141 111.895C190.839 111.485 191.629 111.276 192.508 111.276C193.302 111.276 194.026 111.439 194.691 111.761C195.351 112.083 195.924 112.518 196.41 113.061C196.895 113.605 197.271 114.237 197.543 114.956C197.815 115.675 197.949 116.432 197.949 117.227C197.949 118.063 197.823 118.845 197.572 119.573C197.321 120.301 196.97 120.932 196.514 121.467C196.058 122.003 195.519 122.429 194.896 122.747C194.273 123.061 193.587 123.22 192.834 123.22H192.838ZM192.043 121.15C192.558 121.15 193.022 121.041 193.444 120.819C193.863 120.598 194.222 120.305 194.523 119.937C194.825 119.569 195.055 119.151 195.218 118.682C195.381 118.214 195.46 117.729 195.46 117.227C195.46 116.7 195.368 116.198 195.184 115.73C195 115.261 194.749 114.847 194.436 114.496C194.118 114.145 193.741 113.864 193.302 113.66C192.863 113.455 192.382 113.35 191.872 113.35C191.563 113.35 191.241 113.409 190.902 113.526C190.563 113.643 190.249 113.806 189.952 114.011C189.66 114.216 189.4 114.454 189.183 114.726C188.961 114.998 188.807 115.295 188.719 115.617V118.636C188.865 118.987 189.058 119.318 189.292 119.627C189.526 119.937 189.789 120.2 190.074 120.422C190.358 120.644 190.672 120.819 191.011 120.949C191.349 121.083 191.692 121.145 192.048 121.145L192.043 121.15Z" fill="#3E6AC7"/>
<path d="M205.305 123.22C204.393 123.22 203.573 123.057 202.85 122.735C202.122 122.413 201.503 121.978 200.989 121.434C200.475 120.89 200.077 120.255 199.801 119.527C199.521 118.799 199.383 118.038 199.383 117.248C199.383 116.457 199.521 115.696 199.801 114.968C200.081 114.241 200.479 113.605 201.002 113.061C201.524 112.518 202.147 112.087 202.875 111.761C203.603 111.439 204.414 111.276 205.309 111.276C206.204 111.276 207.015 111.439 207.743 111.761C208.471 112.083 209.094 112.518 209.617 113.061C210.139 113.605 210.537 114.241 210.817 114.968C211.097 115.696 211.235 116.457 211.235 117.248C211.235 118.038 211.097 118.799 210.817 119.527C210.537 120.255 210.139 120.89 209.617 121.434C209.094 121.978 208.471 122.413 207.743 122.735C207.015 123.057 206.204 123.22 205.309 123.22H205.305ZM201.867 117.273C201.867 117.829 201.955 118.343 202.131 118.816C202.306 119.289 202.549 119.694 202.858 120.037C203.168 120.384 203.532 120.652 203.95 120.853C204.368 121.053 204.82 121.15 205.305 121.15C205.79 121.15 206.242 121.049 206.66 120.853C207.078 120.656 207.442 120.38 207.751 120.025C208.061 119.673 208.303 119.259 208.479 118.791C208.655 118.322 208.742 117.808 208.742 117.248C208.742 116.687 208.655 116.194 208.479 115.717C208.303 115.24 208.061 114.826 207.751 114.471C207.442 114.12 207.078 113.844 206.66 113.643C206.242 113.446 205.79 113.346 205.305 113.346C204.82 113.346 204.389 113.45 203.971 113.655C203.553 113.86 203.189 114.14 202.879 114.492C202.57 114.843 202.323 115.261 202.143 115.738C201.959 116.215 201.867 116.725 201.867 117.269V117.273Z" fill="#3E6AC7"/>
<path d="M227.336 111.476H229.648L224.801 122.998H222.798L220.661 117.645L218.524 122.998H216.521L211.653 111.476H213.966L217.688 120.664L219.361 116.39L217.357 111.497H219.34L220.661 115.111L221.962 111.497H223.944L221.962 116.39L223.635 120.664L227.336 111.476Z" fill="#3E6AC7"/>
<path d="M236.064 123.22C235.169 123.22 234.353 123.061 233.617 122.747C232.881 122.433 232.254 122.003 231.735 121.459C231.213 120.915 230.811 120.284 230.523 119.565C230.238 118.845 230.092 118.08 230.092 117.273C230.092 116.466 230.234 115.696 230.523 114.968C230.811 114.241 231.213 113.601 231.735 113.053C232.258 112.501 232.885 112.07 233.617 111.752C234.353 111.439 235.173 111.28 236.085 111.28C236.996 111.28 237.791 111.443 238.519 111.765C239.246 112.087 239.865 112.518 240.38 113.053C240.894 113.588 241.287 114.212 241.559 114.927C241.831 115.638 241.965 116.386 241.965 117.164C241.965 117.34 241.956 117.507 241.944 117.662C241.927 117.816 241.914 117.946 241.898 118.046H232.668C232.714 118.561 232.835 119.025 233.032 119.435C233.228 119.845 233.488 120.204 233.801 120.506C234.115 120.807 234.479 121.037 234.88 121.2C235.286 121.363 235.708 121.442 236.147 121.442C236.469 121.442 236.791 121.4 237.105 121.321C237.419 121.242 237.711 121.124 237.975 120.97C238.238 120.815 238.473 120.627 238.682 120.409C238.887 120.188 239.05 119.945 239.167 119.682L241.237 120.275C240.84 121.141 240.183 121.852 239.267 122.4C238.347 122.952 237.281 123.228 236.06 123.228L236.064 123.22ZM239.564 116.369C239.522 115.884 239.397 115.437 239.2 115.027C239.004 114.617 238.749 114.266 238.439 113.982C238.13 113.693 237.77 113.471 237.36 113.308C236.95 113.145 236.515 113.066 236.06 113.066C235.604 113.066 235.173 113.145 234.772 113.308C234.366 113.471 234.01 113.693 233.701 113.982C233.391 114.266 233.145 114.617 232.952 115.027C232.76 115.437 232.643 115.884 232.601 116.369H239.564Z" fill="#3E6AC7"/>
<path d="M250.425 113.572C249.484 113.601 248.652 113.818 247.924 114.22C247.196 114.626 246.678 115.199 246.372 115.951V123.002H243.951V111.481H246.197V114.057C246.594 113.262 247.113 112.627 247.748 112.15C248.388 111.673 249.074 111.414 249.81 111.368H250.174C250.27 111.368 250.354 111.376 250.429 111.389V113.572H250.425Z" fill="#3E6AC7"/>
<path d="M256.836 123.22C255.941 123.22 255.125 123.061 254.389 122.747C253.653 122.433 253.026 122.003 252.507 121.459C251.985 120.915 251.583 120.284 251.295 119.565C251.01 118.845 250.864 118.08 250.864 117.273C250.864 116.466 251.006 115.696 251.295 114.968C251.583 114.241 251.985 113.601 252.507 113.053C253.03 112.501 253.657 112.07 254.389 111.752C255.125 111.439 255.945 111.28 256.857 111.28C257.768 111.28 258.563 111.443 259.291 111.765C260.018 112.087 260.637 112.518 261.152 113.053C261.666 113.588 262.059 114.212 262.331 114.927C262.603 115.638 262.737 116.386 262.737 117.164C262.737 117.34 262.728 117.507 262.716 117.662C262.699 117.816 262.686 117.946 262.67 118.046H253.44C253.486 118.561 253.607 119.025 253.804 119.435C254 119.845 254.26 120.204 254.573 120.506C254.887 120.807 255.251 121.037 255.652 121.2C256.058 121.363 256.48 121.442 256.919 121.442C257.241 121.442 257.563 121.4 257.877 121.321C258.191 121.242 258.483 121.124 258.747 120.97C259.01 120.815 259.245 120.627 259.454 120.409C259.659 120.188 259.822 119.945 259.939 119.682L262.009 120.275C261.612 121.141 260.955 121.852 260.039 122.4C259.119 122.952 258.053 123.228 256.832 123.228L256.836 123.22ZM260.34 116.369C260.298 115.884 260.173 115.437 259.976 115.027C259.78 114.617 259.525 114.266 259.215 113.982C258.906 113.693 258.546 113.471 258.136 113.308C257.727 113.145 257.292 113.066 256.836 113.066C256.38 113.066 255.949 113.145 255.548 113.308C255.142 113.471 254.787 113.693 254.477 113.982C254.168 114.266 253.921 114.617 253.728 115.027C253.536 115.437 253.419 115.884 253.377 116.369H260.34Z" fill="#3E6AC7"/>
<path d="M269.42 123.22C268.642 123.22 267.922 123.061 267.262 122.747C266.601 122.433 266.028 122.003 265.543 121.459C265.058 120.915 264.681 120.28 264.41 119.552C264.138 118.824 264.004 118.042 264.004 117.206C264.004 116.369 264.134 115.638 264.389 114.927C264.644 114.216 265.008 113.588 265.468 113.045C265.932 112.501 266.475 112.07 267.099 111.757C267.722 111.443 268.408 111.284 269.16 111.284C270.085 111.284 270.9 111.51 271.607 111.957C272.314 112.405 272.861 112.974 273.259 113.664V106.922H275.684V120.142C275.684 120.422 275.73 120.618 275.827 120.736C275.923 120.853 276.094 120.92 276.345 120.932V123.002C276.094 123.048 275.893 123.073 275.739 123.09C275.584 123.103 275.454 123.111 275.354 123.111C274.869 123.111 274.472 122.985 274.166 122.735C273.857 122.484 273.689 122.162 273.66 121.764L273.618 120.907C273.192 121.626 272.611 122.191 271.879 122.605C271.143 123.015 270.327 123.22 269.432 123.22H269.42ZM270.013 121.15C270.365 121.15 270.72 121.091 271.072 120.974C271.423 120.857 271.749 120.694 272.042 120.489C272.335 120.284 272.59 120.041 272.803 119.761C273.016 119.481 273.167 119.18 273.255 118.858V115.838C273.121 115.47 272.937 115.132 272.694 114.826C272.452 114.517 272.176 114.253 271.866 114.032C271.557 113.81 271.23 113.643 270.888 113.526C270.54 113.409 270.193 113.35 269.842 113.35C269.357 113.35 268.914 113.459 268.508 113.68C268.102 113.902 267.755 114.195 267.462 114.563C267.17 114.931 266.936 115.349 266.768 115.817C266.601 116.286 266.513 116.771 266.513 117.273C266.513 117.8 266.605 118.302 266.789 118.77C266.973 119.238 267.224 119.652 267.55 120.004C267.872 120.355 268.244 120.635 268.663 120.84C269.081 121.045 269.533 121.15 270.018 121.15H270.013Z" fill="#3E6AC7"/>
<path d="M290.413 123.22C289.531 123.22 288.736 123.011 288.021 122.592C287.31 122.174 286.746 121.614 286.336 120.907V122.998H284.199V106.914H286.62V113.655C287.076 112.919 287.645 112.342 288.327 111.916C289.008 111.489 289.815 111.276 290.74 111.276C291.505 111.276 292.199 111.443 292.831 111.773C293.462 112.104 294.002 112.543 294.449 113.095C294.897 113.647 295.244 114.283 295.486 115.01C295.729 115.738 295.85 116.499 295.85 117.29C295.85 118.08 295.712 118.883 295.432 119.602C295.152 120.321 294.771 120.949 294.286 121.484C293.801 122.019 293.224 122.442 292.555 122.751C291.886 123.061 291.17 123.215 290.405 123.215L290.413 123.22ZM289.774 121.15C290.301 121.15 290.786 121.045 291.229 120.832C291.668 120.618 292.049 120.334 292.362 119.983C292.676 119.631 292.923 119.222 293.103 118.762C293.278 118.297 293.366 117.812 293.366 117.298C293.366 116.783 293.282 116.286 293.111 115.809C292.944 115.332 292.705 114.914 292.404 114.554C292.103 114.195 291.743 113.906 291.325 113.685C290.907 113.463 290.447 113.354 289.949 113.354C289.201 113.354 288.536 113.597 287.954 114.082C287.373 114.567 286.93 115.152 286.62 115.843V118.883C286.708 119.222 286.863 119.527 287.085 119.799C287.306 120.071 287.561 120.309 287.854 120.514C288.147 120.719 288.465 120.878 288.803 120.986C289.142 121.095 289.464 121.15 289.774 121.15Z" fill="#3E6AC7"/>
<path d="M298.037 125.708C298.259 125.754 298.472 125.787 298.686 125.817C298.899 125.846 299.07 125.863 299.204 125.863C299.397 125.863 299.56 125.821 299.702 125.741C299.84 125.662 299.986 125.516 300.133 125.311C300.279 125.106 300.43 124.813 300.584 124.441C300.739 124.064 300.919 123.583 301.124 122.998L296.385 111.476H298.874L302.441 120.861L305.615 111.476H307.907L302.684 125.666C302.449 126.327 302.04 126.883 301.462 127.331C300.881 127.778 300.137 128.004 299.225 128.004C299.049 128.004 298.865 127.991 298.673 127.97C298.481 127.95 298.267 127.899 298.033 127.828V125.712L298.037 125.708Z" fill="#3E6AC7"/>
<path d="M314.54 109.582V106.918H316.961V109.582H314.54ZM314.54 123.002V111.481H316.961V123.002H314.54Z" fill="#3E6AC7"/>
<path d="M320.177 123.002V107.361H325.731C326.994 107.361 328.098 107.566 329.047 107.976C329.996 108.386 330.787 108.946 331.427 109.649C332.067 110.356 332.547 111.18 332.87 112.129C333.192 113.078 333.355 114.086 333.355 115.157C333.355 116.344 333.175 117.423 332.815 118.385C332.455 119.347 331.945 120.171 331.285 120.853C330.624 121.534 329.821 122.065 328.884 122.438C327.943 122.814 326.893 122.998 325.735 122.998H320.181L320.177 123.002ZM330.841 115.157C330.841 114.333 330.728 113.576 330.498 112.886C330.272 112.196 329.938 111.606 329.495 111.113C329.051 110.619 328.516 110.234 327.885 109.954C327.253 109.674 326.534 109.536 325.727 109.536H322.64V120.815H325.727C326.55 120.815 327.278 120.673 327.918 120.384C328.558 120.096 329.093 119.703 329.528 119.197C329.963 118.691 330.289 118.092 330.507 117.402C330.728 116.712 330.837 115.964 330.837 115.157H330.841Z" fill="#3E6AC7"/>
<path d="M335.646 109.582V106.918H338.068V109.582H335.646ZM335.646 123.002V111.481H338.068V123.002H335.646Z" fill="#3E6AC7"/>
<path d="M345.537 123.111C344.759 123.111 344.044 122.952 343.4 122.638C342.752 122.325 342.2 121.894 341.735 121.35C341.271 120.807 340.912 120.183 340.656 119.477C340.401 118.77 340.272 118.03 340.272 117.252C340.272 116.428 340.406 115.654 340.669 114.927C340.932 114.199 341.3 113.568 341.769 113.032C342.237 112.497 342.802 112.07 343.454 111.752C344.107 111.439 344.83 111.28 345.625 111.28C346.549 111.28 347.36 111.502 348.059 111.941C348.757 112.38 349.334 112.953 349.79 113.66V111.476H351.927V122.668C351.927 123.504 351.772 124.244 351.463 124.892C351.153 125.537 350.723 126.084 350.175 126.532C349.627 126.979 348.975 127.322 348.226 127.556C347.477 127.791 346.67 127.908 345.8 127.908C344.521 127.908 343.463 127.69 342.618 127.259C341.773 126.825 341.066 126.222 340.493 125.44L341.861 124.161C342.3 124.775 342.869 125.248 343.567 125.57C344.266 125.892 345.01 126.055 345.805 126.055C346.302 126.055 346.779 125.988 347.226 125.859C347.674 125.725 348.067 125.52 348.406 125.24C348.745 124.959 349.012 124.608 349.209 124.182C349.405 123.755 349.506 123.249 349.506 122.663V120.903C349.096 121.61 348.527 122.153 347.808 122.534C347.088 122.914 346.331 123.107 345.537 123.107V123.111ZM346.332 121.15C346.7 121.15 347.051 121.087 347.39 120.961C347.728 120.836 348.038 120.669 348.326 120.455C348.615 120.242 348.857 119.999 349.067 119.728C349.271 119.456 349.418 119.167 349.506 118.858V115.838C349.359 115.47 349.167 115.136 348.933 114.835C348.699 114.534 348.431 114.274 348.13 114.053C347.829 113.831 347.511 113.66 347.172 113.534C346.833 113.409 346.495 113.346 346.16 113.346C345.633 113.346 345.156 113.459 344.738 113.689C344.32 113.915 343.964 114.216 343.668 114.592C343.375 114.968 343.145 115.391 342.986 115.859C342.823 116.328 342.743 116.813 342.743 117.315C342.743 117.842 342.835 118.339 343.019 118.803C343.203 119.268 343.454 119.669 343.78 120.016C344.102 120.363 344.483 120.635 344.914 120.844C345.349 121.049 345.821 121.154 346.336 121.154L346.332 121.15Z" fill="#3E6AC7"/>
<path d="M367.438 118.967C367.438 119.598 367.309 120.163 367.054 120.664C366.798 121.166 366.451 121.589 366.016 121.932C365.581 122.279 365.071 122.542 364.486 122.726C363.896 122.91 363.273 123.002 362.612 123.002H355.143V107.361H363.206C363.75 107.361 364.243 107.478 364.682 107.713C365.121 107.947 365.498 108.252 365.807 108.629C366.117 109.005 366.355 109.427 366.522 109.908C366.69 110.385 366.778 110.866 366.778 111.351C366.778 112.116 366.581 112.831 366.192 113.501C365.803 114.17 365.247 114.663 364.528 114.989C365.423 115.253 366.133 115.734 366.652 116.432C367.175 117.131 367.434 117.98 367.434 118.975L367.438 118.967ZM357.61 109.494V114.099H362.148C362.457 114.099 362.738 114.04 362.997 113.923C363.252 113.806 363.482 113.647 363.679 113.45C363.875 113.254 364.03 113.015 364.143 112.735C364.252 112.455 364.31 112.15 364.31 111.811C364.31 111.134 364.118 110.582 363.737 110.147C363.357 109.712 362.871 109.498 362.282 109.498H357.61V109.494ZM364.904 118.506C364.904 118.184 364.85 117.875 364.737 117.582C364.628 117.29 364.477 117.03 364.298 116.813C364.114 116.591 363.892 116.415 363.624 116.286C363.357 116.156 363.072 116.089 362.767 116.089H357.61V120.869H362.612C362.934 120.869 363.235 120.807 363.515 120.681C363.796 120.556 364.038 120.388 364.243 120.175C364.448 119.962 364.611 119.711 364.728 119.427C364.845 119.142 364.904 118.837 364.904 118.511V118.506Z" fill="#3E6AC7"/>
<path d="M369.705 109.582V106.918H372.126V109.582H369.705ZM369.705 123.002V111.481H372.126V123.002H369.705Z" fill="#3E6AC7"/>
<path d="M380.214 123.22C379.303 123.22 378.483 123.057 377.76 122.735C377.032 122.413 376.413 121.978 375.899 121.434C375.384 120.89 374.987 120.255 374.711 119.527C374.431 118.799 374.293 118.038 374.293 117.248C374.293 116.457 374.431 115.696 374.711 114.968C374.991 114.241 375.388 113.605 375.911 113.061C376.434 112.518 377.057 112.087 377.785 111.761C378.512 111.439 379.324 111.276 380.219 111.276C381.114 111.276 381.925 111.439 382.653 111.761C383.38 112.083 384.003 112.518 384.526 113.061C385.049 113.605 385.446 114.241 385.726 114.968C386.007 115.696 386.145 116.457 386.145 117.248C386.145 118.038 386.007 118.799 385.726 119.527C385.446 120.255 385.049 120.89 384.526 121.434C384.003 121.978 383.38 122.413 382.653 122.735C381.925 123.057 381.114 123.22 380.219 123.22H380.214ZM376.777 117.273C376.777 117.829 376.865 118.343 377.04 118.816C377.216 119.289 377.459 119.694 377.768 120.037C378.077 120.384 378.441 120.652 378.86 120.853C379.278 121.053 379.729 121.15 380.214 121.15C380.7 121.15 381.151 121.049 381.569 120.853C381.988 120.656 382.352 120.38 382.661 120.025C382.97 119.673 383.213 119.259 383.389 118.791C383.564 118.322 383.652 117.808 383.652 117.248C383.652 116.687 383.564 116.194 383.389 115.717C383.213 115.24 382.97 114.826 382.661 114.471C382.352 114.12 381.988 113.844 381.569 113.643C381.151 113.446 380.7 113.346 380.214 113.346C379.729 113.346 379.299 113.45 378.88 113.655C378.462 113.86 378.098 114.14 377.789 114.492C377.479 114.843 377.233 115.261 377.053 115.738C376.869 116.215 376.777 116.725 376.777 117.269V117.273Z" fill="#3E6AC7"/>
<path d="M79.6177 105.132C82.3569 105.061 88.2494 104.647 90.6039 104.037C93.0671 103.397 95.5722 102.418 97.2366 100.44L97.2743 100.394C100.352 96.6888 99.6288 91.1936 99.5953 90.9636L99.4238 89.7257L98.1734 89.7842C97.9392 89.7968 92.4022 90.0854 89.3242 93.7906C87.137 96.4211 86.8694 99.9591 86.9112 101.866C84.5943 102.255 82.1604 102.41 80.1404 102.439H58.5026C67.2096 99.6831 75.0844 94.8612 81.7296 88.2202C92.6322 77.3176 98.6376 62.8184 98.6376 47.3951L98.6209 28.5884C98.5749 23.4696 96.1075 18.7732 92.0216 15.0595C96.8561 12.5879 100.649 8.92447 100.649 1.37589C100.649 0.618942 100.034 0 99.2733 0C91.6996 0 87.4088 4.68389 85.8364 6.83764C83.5488 5.9385 77.832 4.15695 68.4976 4.15695C59.1633 4.15695 53.4465 5.9385 51.1589 6.83764C49.5865 4.68389 45.2915 0 37.722 0C36.9651 0 36.3461 0.61476 36.3461 1.37589C36.3461 8.99557 40.0681 12.7009 44.8482 15.1724C40.8334 18.8652 38.4162 23.5198 38.3702 28.5884L38.3451 46.4165L12.4541 102.439H4.61279L3.36654 105.187C3.36654 105.187 77.7065 105.187 79.6177 105.132ZM91.4361 95.5471C92.9417 93.7321 95.4133 93.0002 96.9397 92.7117C96.9397 93.6861 96.831 95.0578 96.3793 96.3919C96.1117 97.1865 95.7227 97.9685 95.1581 98.646C93.6526 100.461 91.181 101.193 89.6546 101.481C89.6546 101.41 89.6546 101.339 89.6546 101.268C89.6839 99.6999 89.9933 97.2868 91.432 95.5513L91.4361 95.5471ZM18.2044 96.5131L22.7336 86.7104L40.9171 86.7188C62.5926 86.7104 80.2283 69.0706 80.2283 47.3951H95.89C95.89 77.7609 71.2745 102.381 40.9045 102.381H15.4903L17.5646 97.889L18.2002 96.5131H18.2044ZM32.5154 65.5535L32.6283 65.3109L38.4037 52.815L39.6583 50.105L40.9129 47.3951H59.0797C59.0797 57.4236 50.954 65.5577 40.9254 65.5619L32.5196 65.5535H32.5154ZM40.9213 68.3095C52.447 68.3011 61.8231 58.9208 61.8231 47.3951H77.4848C77.4848 67.5901 61.1163 83.9628 40.9213 83.9712L24.0091 83.9628L24.122 83.7203L31.2482 68.3011L40.9254 68.3095H40.9213ZM49.4484 9.22558C49.8081 9.86962 50.6194 10.1164 51.276 9.77761C51.3262 9.75252 55.7424 7.54858 64.6042 7.02165C65.817 6.95055 67.1134 6.90873 68.4976 6.90873C69.8819 6.90873 71.1742 6.95055 72.3911 7.02165C81.2487 7.55277 85.6691 9.75252 85.7151 9.77761C86.3717 10.1164 87.183 9.8738 87.5468 9.22976C87.689 8.98302 90.8716 3.49619 97.8472 2.8187C97.3705 8.44772 94.0666 11.1284 89.6671 13.1525C88.7011 13.5958 87.6848 14.0098 86.6352 14.4155C85.9493 14.679 85.2551 14.9382 84.5441 15.2017C78.2794 17.5353 71.3707 20.1073 68.4976 27.568C65.6329 20.1909 58.7786 17.6775 52.5599 15.3983C51.7569 15.1055 50.9707 14.8128 50.197 14.52C49.1515 14.1186 48.1395 13.7087 47.1818 13.2654C42.845 11.2497 39.6081 8.53136 39.1481 2.82288C46.1237 3.50037 49.3104 8.98721 49.4484 9.22976V9.22558ZM41.122 28.6093C41.1638 23.9756 43.5852 19.7225 47.5624 16.4187C48.8881 16.9707 50.2556 17.4726 51.6106 17.9702C59.5899 20.8977 67.1217 23.6578 67.1217 35.8108C67.1217 36.5678 67.7365 37.1867 68.4976 37.1867C69.2588 37.1867 69.8735 36.5719 69.8735 35.8108C69.8735 23.5951 77.4639 20.768 85.5018 17.7737C86.7732 17.3011 88.0487 16.8244 89.2907 16.3058C93.3515 19.6263 95.8315 23.9213 95.8733 28.6093L95.9067 44.7018H41.0844L41.122 28.6093ZM61.2585 29.7218C61.2585 26.0374 58.26 23.0389 54.5756 23.0389C50.8913 23.0389 47.8927 26.0374 47.8927 29.7218C47.8927 33.4061 50.8913 36.4047 54.5756 36.4047C58.26 36.4047 61.2585 33.4061 61.2585 29.7218ZM54.5756 33.6571C52.4052 33.6571 50.6403 31.8922 50.6403 29.7218C50.6403 27.5513 52.4052 25.7865 54.5756 25.7865C56.7461 25.7865 58.5109 27.5513 58.5109 29.7218C58.5109 31.8922 56.7461 33.6571 54.5756 33.6571ZM82.4197 36.4047C86.104 36.4047 89.1026 33.4061 89.1026 29.7218C89.1026 26.0374 86.104 23.0389 82.4197 23.0389C78.7353 23.0389 75.7368 26.0374 75.7368 29.7218C75.7368 33.4061 78.7353 36.4047 82.4197 36.4047ZM82.4197 25.7865C84.5901 25.7865 86.355 27.5513 86.355 29.7218C86.355 31.8922 84.5901 33.6571 82.4197 33.6571C80.2492 33.6571 78.4844 31.8922 78.4844 29.7218C78.4844 27.5513 80.2492 25.7865 82.4197 25.7865ZM112.175 110.297C112.016 110.126 108.252 106.052 103.439 106.052C99.5158 106.052 96.2915 108.754 95.1456 109.845L32.9419 109.837L1.24625 109.845L0 112.597H7.8706L0.568758 127.694H14.8002C20.5756 127.694 25.937 124.332 28.4504 119.134L31.612 112.601H62.6972C66.3564 112.652 71.2578 113.053 74.708 114.358C74.6452 116.215 74.8543 119.903 77.1168 122.622C80.1948 126.327 85.7318 126.615 85.966 126.628L87.2165 126.687L87.3879 125.449C87.4214 125.214 88.1449 119.719 85.0669 116.018C83.4986 114.132 81.2989 113.133 79.4839 112.601H95.1456C96.2915 113.697 99.5158 116.399 103.439 116.399C108.256 116.399 112.016 112.33 112.175 112.154L113.02 111.23L112.175 110.306V110.297ZM82.9591 117.766C84.4647 119.581 84.7365 122.141 84.7407 123.696C83.2101 123.408 80.7427 122.676 79.2371 120.861C78.016 119.389 77.6061 117.428 77.4932 115.909C77.4681 115.554 77.4556 115.224 77.4556 114.931C78.4509 115.119 79.8352 115.5 81.1023 116.236C81.784 116.633 82.4322 117.131 82.9633 117.766H82.9591ZM14.8002 124.947H4.95154L10.9235 112.597H28.5633L25.983 117.934C23.9213 122.191 19.5343 124.943 14.8044 124.943L14.8002 124.947ZM103.439 113.643C101.08 113.643 98.9387 112.213 97.7385 111.221C98.9387 110.23 101.08 108.8 103.439 108.8C105.797 108.8 107.938 110.23 109.139 111.221C107.938 112.213 105.797 113.643 103.439 113.643Z" fill="#3E6AC7"/>
</g>
<defs>
<clipPath id="clip0_2_24">
<rect width="386.14" height="128" fill="white"/>
</clipPath>
</defs>
</svg>
