<svg width="114" height="128" viewBox="0 0 114 128" fill="none" xmlns="http://www.w3.org/2000/svg">
<path d="M79.6177 105.132C82.3569 105.061 88.2494 104.647 90.6039 104.037C93.0671 103.397 95.5722 102.418 97.2366 100.44L97.2743 100.394C100.352 96.6888 99.6288 91.1936 99.5953 90.9636L99.4238 89.7257L98.1734 89.7842C97.9392 89.7968 92.4022 90.0853 89.3242 93.7906C87.137 96.4211 86.8694 99.9591 86.9112 101.866C84.5943 102.255 82.1604 102.41 80.1404 102.439H58.5026C67.2096 99.6831 75.0844 94.8612 81.7296 88.2202C92.6322 77.3176 98.6376 62.8184 98.6376 47.3951L98.6209 28.5884C98.5749 23.4696 96.1075 18.7732 92.0216 15.0595C96.8561 12.5879 100.649 8.92448 100.649 1.37589C100.649 0.618942 100.034 0 99.2733 0C91.6996 0 87.4088 4.68389 85.8364 6.83764C83.5488 5.9385 77.832 4.15695 68.4976 4.15695C59.1633 4.15695 53.4465 5.9385 51.1589 6.83764C49.5865 4.68389 45.2915 0 37.722 0C36.9651 0 36.3461 0.61476 36.3461 1.37589C36.3461 8.99557 40.0681 12.7009 44.8482 15.1724C40.8334 18.8652 38.4162 23.5198 38.3702 28.5884L38.3451 46.4165L12.4541 102.439H4.61279L3.36654 105.187C3.36654 105.187 77.7065 105.187 79.6177 105.132ZM91.4361 95.5471C92.9417 93.7321 95.4133 93.0002 96.9397 92.7117C96.9397 93.6861 96.831 95.0578 96.3793 96.3919C96.1117 97.1865 95.7227 97.9685 95.1582 98.646C93.6526 100.461 91.181 101.193 89.6546 101.481C89.6546 101.41 89.6546 101.339 89.6546 101.268C89.6839 99.6999 89.9933 97.2868 91.432 95.5513L91.4361 95.5471ZM18.2044 96.5131L22.7336 86.7104L40.9171 86.7188C62.5926 86.7104 80.2283 69.0706 80.2283 47.3951H95.89C95.89 77.7609 71.2745 102.381 40.9045 102.381H15.4903L17.5646 97.889L18.2002 96.5131H18.2044ZM32.5154 65.5535L32.6283 65.3109L38.4037 52.815L39.6583 50.105L40.9129 47.3951H59.0797C59.0797 57.4236 50.954 65.5577 40.9255 65.5619L32.5195 65.5535H32.5154ZM40.9213 68.3095C52.447 68.3011 61.8231 58.9208 61.8231 47.3951H77.4848C77.4848 67.5901 61.1163 83.9628 40.9213 83.9712L24.0091 83.9628L24.122 83.7203L31.2482 68.3011L40.9255 68.3095H40.9213ZM49.4484 9.22558C49.8081 9.86962 50.6194 10.1164 51.276 9.77761C51.3262 9.75252 55.7424 7.54858 64.6042 7.02165C65.817 6.95055 67.1134 6.90873 68.4976 6.90873C69.8819 6.90873 71.1742 6.95055 72.3911 7.02165C81.2487 7.55277 85.6691 9.75252 85.7151 9.77761C86.3717 10.1164 87.183 9.8738 87.5468 9.22976C87.689 8.98302 90.8716 3.49619 97.8472 2.8187C97.3705 8.44772 94.0666 11.1284 89.6671 13.1525C88.7011 13.5958 87.6848 14.0098 86.6352 14.4155C85.9493 14.679 85.2551 14.9382 84.5441 15.2017C78.2794 17.5353 71.3707 20.1073 68.4976 27.568C65.6329 20.1909 58.7786 17.6775 52.5599 15.3983C51.7569 15.1055 50.9707 14.8128 50.197 14.52C49.1515 14.1186 48.1395 13.7087 47.1818 13.2654C42.845 11.2497 39.6081 8.53136 39.1481 2.82288C46.1237 3.50037 49.3104 8.98721 49.4484 9.22976V9.22558ZM41.122 28.6093C41.1638 23.9756 43.5852 19.7225 47.5624 16.4187C48.8881 16.9707 50.2556 17.4726 51.6106 17.9702C59.5899 20.8977 67.1218 23.6578 67.1218 35.8108C67.1218 36.5678 67.7365 37.1867 68.4976 37.1867C69.2588 37.1867 69.8735 36.5719 69.8735 35.8108C69.8735 23.5951 77.4639 20.768 85.5018 17.7737C86.7732 17.3011 88.0487 16.8244 89.2907 16.3058C93.3515 19.6263 95.8315 23.9213 95.8733 28.6093L95.9067 44.7018H41.0844L41.122 28.6093ZM61.2585 29.7218C61.2585 26.0374 58.26 23.0389 54.5756 23.0389C50.8913 23.0389 47.8927 26.0374 47.8927 29.7218C47.8927 33.4061 50.8913 36.4047 54.5756 36.4047C58.26 36.4047 61.2585 33.4061 61.2585 29.7218ZM54.5756 33.6571C52.4052 33.6571 50.6403 31.8922 50.6403 29.7218C50.6403 27.5513 52.4052 25.7865 54.5756 25.7865C56.7461 25.7865 58.5109 27.5513 58.5109 29.7218C58.5109 31.8922 56.7461 33.6571 54.5756 33.6571ZM82.4197 36.4047C86.104 36.4047 89.1026 33.4061 89.1026 29.7218C89.1026 26.0374 86.104 23.0389 82.4197 23.0389C78.7353 23.0389 75.7368 26.0374 75.7368 29.7218C75.7368 33.4061 78.7353 36.4047 82.4197 36.4047ZM82.4197 25.7865C84.5901 25.7865 86.355 27.5513 86.355 29.7218C86.355 31.8922 84.5901 33.6571 82.4197 33.6571C80.2492 33.6571 78.4844 31.8922 78.4844 29.7218C78.4844 27.5513 80.2492 25.7865 82.4197 25.7865ZM112.175 110.297C112.016 110.126 108.252 106.052 103.439 106.052C99.5158 106.052 96.2915 108.754 95.1456 109.845L32.9419 109.837L1.24625 109.845L0 112.597H7.8706L0.568758 127.694H14.8002C20.5756 127.694 25.937 124.332 28.4504 119.134L31.612 112.601H62.6972C66.3564 112.652 71.2578 113.053 74.708 114.358C74.6452 116.215 74.8543 119.903 77.1168 122.622C80.1948 126.327 85.7318 126.615 85.966 126.628L87.2165 126.687L87.3879 125.449C87.4214 125.214 88.1449 119.719 85.0669 116.018C83.4986 114.132 81.2989 113.133 79.4839 112.601H95.1456C96.2915 113.697 99.5158 116.399 103.439 116.399C108.256 116.399 112.016 112.33 112.175 112.154L113.02 111.23L112.175 110.306V110.297ZM82.9591 117.766C84.4647 119.581 84.7365 122.141 84.7407 123.696C83.2101 123.408 80.7427 122.676 79.2371 120.861C78.016 119.389 77.6061 117.428 77.4932 115.909C77.4681 115.554 77.4556 115.224 77.4556 114.931C78.4509 115.119 79.8352 115.5 81.1023 116.236C81.784 116.633 82.4322 117.131 82.9633 117.766H82.9591ZM14.8002 124.947H4.95154L10.9235 112.597H28.5633L25.983 117.934C23.9213 122.191 19.5343 124.943 14.8044 124.943L14.8002 124.947ZM103.439 113.643C101.08 113.643 98.9387 112.213 97.7385 111.221C98.9387 110.23 101.08 108.8 103.439 108.8C105.797 108.8 107.938 110.23 109.139 111.221C107.938 112.213 105.797 113.643 103.439 113.643Z" fill="#3E6AC7"/>
</svg>
