<svg width="83" height="94" viewBox="0 0 83 94" fill="none" xmlns="http://www.w3.org/2000/svg">
<mask id="mask0_150_269" style="mask-type:luminance" maskUnits="userSpaceOnUse" x="0" y="0" width="83" height="94">
<path d="M82.3333 0.666748H0.333252V93.1938H82.3333V0.666748Z" fill="white"/>
</mask>
<g mask="url(#mask0_150_269)">
<path d="M58.0978 76.8447C60.0847 76.7932 64.3614 76.494 66.0673 76.0513C67.7727 75.6086 69.6715 74.8789 70.8821 73.4467L70.9092 73.4162C73.1443 70.7329 72.6185 66.7515 72.5935 66.5808L72.4683 65.6833L71.5608 65.7226C71.3896 65.732 67.3727 65.9426 65.141 68.6264C63.5541 70.5346 63.3619 73.096 63.389 74.4789C61.708 74.7626 59.9439 74.8728 58.4768 74.8939H42.7792C49.0979 72.8976 54.8114 69.4049 59.632 64.5901C67.5439 56.6888 71.8999 46.1837 71.8999 35.0097L71.8877 21.3812C71.8539 17.6718 70.0654 14.2677 67.0973 11.578C70.6067 9.78593 73.3581 7.13284 73.3581 1.66495C73.3581 1.11541 72.9116 0.669678 72.3614 0.669678C66.8679 0.669678 63.753 4.06155 62.6095 5.62468C60.9495 4.97439 56.8013 3.68298 50.0303 3.68298C43.2591 3.68298 39.1078 4.97439 37.4509 5.62468C36.3106 4.0646 33.1956 0.669678 27.7022 0.669678C27.152 0.669678 26.7057 1.11541 26.7057 1.66495C26.7057 7.18476 29.408 9.87142 32.8746 11.6635C29.9613 14.341 28.2097 17.7115 28.1761 21.3842L28.1577 34.3014L9.36965 74.8939H3.68062L2.77577 76.8846C2.77577 76.8846 56.7127 76.8846 58.1006 76.8447H58.0978ZM66.6724 69.8991C67.7666 68.5865 69.5584 68.0552 70.6676 67.8446C70.6676 68.5527 70.5884 69.545 70.2615 70.5102C70.0654 71.0836 69.7845 71.6516 69.375 72.1436C68.2802 73.4561 66.489 73.9874 65.3825 74.198C65.3825 74.1492 65.3825 74.0944 65.3825 74.0423C65.4036 72.9037 65.6269 71.1573 66.6724 69.9024V69.8991ZM13.5394 70.6016L16.8256 63.497L30.0194 63.5031C45.7475 63.497 58.5411 50.7174 58.5411 35.0097H69.9036C69.9036 57.0129 52.0418 74.8512 30.0103 74.8512H11.5706L13.0777 71.5967L13.5394 70.6016ZM23.9238 48.1651L24.0064 47.9911L28.1975 38.9359L29.1054 36.9728L30.0133 35.0097H43.1949C43.1949 42.2789 37.2981 48.1681 30.0225 48.1742L23.9238 48.1681V48.1651ZM30.0225 50.1648C38.3833 50.1587 45.1881 43.3597 45.1881 35.0097H56.5509C56.5509 49.6458 44.6745 61.5096 30.0225 61.5129L17.7518 61.5068L17.8344 61.3328L23.0067 50.1587L30.0286 50.1648H30.0225ZM36.2098 7.34965C36.4696 7.81671 37.0596 7.99379 37.5365 7.74956C37.5732 7.73122 40.7769 6.13453 47.2057 5.74985C48.0861 5.69796 49.0276 5.66743 50.0303 5.66743C51.033 5.66743 51.9745 5.69796 52.855 5.74985C59.2835 6.13453 62.4876 7.73122 62.5208 7.74652C62.9979 7.99379 63.5852 7.81671 63.8478 7.34965C63.9486 7.16952 66.2596 3.19755 71.3192 2.70297C70.9735 6.78174 68.5772 8.72348 65.3853 10.1889C64.6855 10.5095 63.9486 10.8087 63.1846 11.1018C62.6893 11.291 62.1818 11.4803 61.6681 11.6727C57.1227 13.364 52.109 15.2294 50.0242 20.6332C47.9454 15.2874 42.9718 13.4647 38.4628 11.8131C37.8819 11.5994 37.3072 11.3888 36.7509 11.175C35.9927 10.885 35.259 10.5889 34.5651 10.2652C31.4195 8.80592 29.0718 6.83366 28.7385 2.69992C33.8009 3.19145 36.112 7.16642 36.2128 7.3435L36.2098 7.34965ZM30.1692 21.3964C30.1998 18.0381 31.9545 14.9577 34.8433 12.5641C35.8063 12.9641 36.7967 13.3274 37.781 13.6876C43.5679 15.8064 49.0368 17.8092 49.0368 26.614C49.0368 27.1636 49.4831 27.6093 50.0334 27.6093C50.5836 27.6093 51.03 27.1636 51.03 26.614C51.03 17.7634 56.5387 15.7118 62.3685 13.5441C63.2882 13.2022 64.2146 12.8572 65.1193 12.4817C68.0664 14.8874 69.867 17.9985 69.8947 21.3964L69.9191 33.0589H30.1417L30.1692 21.3964ZM44.7785 22.2024C44.7785 19.5311 42.6019 17.3604 39.9301 17.3604C37.2583 17.3604 35.0817 19.5341 35.0817 22.2024C35.0817 24.8707 37.2583 27.0445 39.9301 27.0445C42.6019 27.0445 44.7785 24.8707 44.7785 22.2024ZM39.9301 25.0539C38.3558 25.0539 37.0749 23.7747 37.0749 22.2024C37.0749 20.6302 38.3558 19.351 39.9301 19.351C41.5045 19.351 42.7853 20.6302 42.7853 22.2024C42.7853 23.7747 41.5045 25.0539 39.9301 25.0539ZM60.1334 27.0475C62.8084 27.0475 64.9819 24.8738 64.9819 22.2055C64.9819 19.5372 62.8056 17.3635 60.1334 17.3635C57.4618 17.3635 55.2852 19.5372 55.2852 22.2055C55.2852 24.8738 57.4618 27.0475 60.1334 27.0475ZM60.1334 19.351C61.708 19.351 62.989 20.6302 62.989 22.2024C62.989 23.7747 61.708 25.0539 60.1334 25.0539C58.5593 25.0539 57.2784 23.7747 57.2784 22.2024C57.2784 20.6302 58.5593 19.351 60.1334 19.351ZM81.7221 80.5879C81.6085 80.4627 78.876 77.5134 75.3815 77.5134C72.5359 77.5134 70.1972 79.4704 69.3656 80.2643L24.2356 80.2582L1.23811 80.2643L0.333252 82.255H6.04366L0.745942 93.1937H11.0724C15.2635 93.1937 19.1519 90.7575 20.9769 86.99L23.2696 82.255H45.8239C48.4804 82.2916 52.0357 82.5814 54.5394 83.5277C54.4935 84.874 54.6463 87.5457 56.2877 89.5176C58.5228 92.2014 62.5363 92.412 62.7075 92.4214L63.6156 92.4607L63.7409 91.5631C63.7652 91.3953 64.291 87.4111 62.0565 84.7278C60.9191 83.3631 59.3234 82.6362 58.0058 82.255H69.3689C70.2 83.0484 72.5387 85.0054 75.3849 85.0054C78.8787 85.0054 81.6085 82.0561 81.7249 81.9309L82.3366 81.2594L81.7249 80.5879H81.7221ZM60.5218 86.001C61.6161 87.3136 61.8089 89.1696 61.815 90.2993C60.7052 90.0888 58.9139 89.5575 57.8197 88.2449C56.9332 87.1795 56.6362 85.7567 56.5537 84.6574C56.5354 84.4009 56.5265 84.1599 56.5265 83.9493C57.2479 84.0867 58.2535 84.3615 59.1705 84.8957C59.6658 85.1827 60.1367 85.5428 60.519 86.0038L60.5218 86.001ZM11.0724 91.203H3.92518L8.25689 82.255H21.0534L19.1795 86.1229C17.6846 89.2095 14.5023 91.203 11.0693 91.203H11.0724ZM75.3815 83.0152C73.6701 83.0152 72.117 81.9769 71.2455 81.2594C72.117 80.5419 73.6701 79.5042 75.3815 79.5042C77.0936 79.5042 78.6466 80.5419 79.5175 81.2594C78.6466 81.9769 77.0936 83.0152 75.3815 83.0152Z" fill="#434551" fill-opacity="0.25"/>
<path d="M23.0006 50.1588L30.0225 50.1649C38.3833 50.1588 45.1881 43.3598 45.1881 35.0098V33.059H28.7325L28.1975 34.216L27.2896 36.1791L26.3816 38.1422L20.821 50.1588H23.0068H23.0006ZM28.1914 38.939L29.0993 36.976L30.0072 35.0129H43.1889C43.1889 42.2821 37.292 48.1713 30.0164 48.1774L23.9178 48.1713L28.1884 38.9421L28.1914 38.939Z" fill="#A5B66C"/>
</g>
</svg>
