<svg width="83" height="93" viewBox="0 0 83 93" fill="none" xmlns="http://www.w3.org/2000/svg">
<mask id="mask0_150_404" style="mask-type:luminance" maskUnits="userSpaceOnUse" x="0" y="0" width="83" height="93">
<path d="M82.3335 0H0.333496V92.527H82.3335V0Z" fill="white"/>
</mask>
<g mask="url(#mask0_150_404)">
<mask id="mask1_150_404" style="mask-type:luminance" maskUnits="userSpaceOnUse" x="0" y="0" width="83" height="93">
<path d="M82.3335 0H0.333496V92.527H82.3335V0Z" fill="white"/>
</mask>
<g mask="url(#mask1_150_404)">
<path d="M58.098 76.178C60.0849 76.1264 64.3616 75.8272 66.0675 75.3845C67.7729 74.9419 69.6716 74.2122 70.8823 72.7799L70.9094 72.7495C73.1445 70.0662 72.6187 66.0847 72.5937 65.9141L72.4685 65.0165L71.561 65.0559C71.3898 65.0653 67.3729 65.2758 65.1412 67.9597C63.5543 69.8678 63.3621 72.4292 63.3892 73.8121C61.7082 74.0958 59.9441 74.2061 58.477 74.2271H42.7794C49.0981 72.2309 54.8116 68.7381 59.6322 63.9234C67.5441 56.022 71.9001 45.5169 71.9001 34.343L71.8879 20.7144C71.8541 17.005 70.0656 13.601 67.0975 10.9113C70.6069 9.11918 73.3583 6.4661 73.3583 0.998204C73.3583 0.448667 72.9118 0.00292969 72.3616 0.00292969C66.8681 0.00292969 63.7532 3.3948 62.6097 4.95793C60.9497 4.30765 56.8015 3.01623 50.0305 3.01623C43.2593 3.01623 39.108 4.30765 37.4511 4.95793C36.3108 3.39786 33.1958 0.00292969 27.7024 0.00292969C27.1522 0.00292969 26.7059 0.448667 26.7059 0.998204C26.7059 6.51801 29.4082 9.20467 32.8748 10.9968C29.9615 13.6742 28.2099 17.0447 28.1763 20.7175L28.1579 33.6347L9.36989 74.2271H3.68086L2.77601 76.2178C2.77601 76.2178 56.7129 76.2178 58.1008 76.178H58.098ZM66.6726 69.2323C67.7668 67.9198 69.5586 67.3884 70.6678 67.1779C70.6678 67.886 70.5886 68.8783 70.2617 69.8435C70.0656 70.4169 69.7847 70.9848 69.3752 71.4768C68.2804 72.7894 66.4892 73.3207 65.3827 73.5312C65.3827 73.4825 65.3827 73.4276 65.3827 73.3755C65.4038 72.237 65.6271 70.4906 66.6726 69.2356V69.2323ZM13.5396 69.9349L16.8258 62.8302L30.0196 62.8363C45.7477 62.8302 58.5413 50.0506 58.5413 34.343H69.9038C69.9038 56.3461 52.042 74.1845 30.0105 74.1845H11.5708L13.0779 70.93L13.5396 69.9349ZM23.924 47.4983L24.0066 47.3243L28.1977 38.2691L29.1056 36.3061L30.0135 34.343H43.1951C43.1951 41.6121 37.2983 47.5014 30.0227 47.5075L23.924 47.5014V47.4983ZM30.0227 49.498C38.3835 49.4919 45.1883 42.6929 45.1883 34.343H56.5511C56.5511 48.979 44.6747 60.8428 30.0227 60.8462L17.752 60.8401L17.8346 60.6661L23.007 49.4919L30.0288 49.498H30.0227ZM36.21 6.6829C36.4698 7.14997 37.0598 7.32704 37.5367 7.08281C37.5734 7.06448 40.7771 5.46779 47.2059 5.08311C48.0863 5.03121 49.0278 5.00068 50.0305 5.00068C51.0332 5.00068 51.9747 5.03121 52.8552 5.08311C59.2837 5.46779 62.4878 7.06448 62.521 7.07977C62.9981 7.32704 63.5854 7.14997 63.848 6.6829C63.9488 6.50278 66.2598 2.53081 71.3194 2.03622C70.9737 6.11499 68.5774 8.05673 65.3855 9.52215C64.6857 9.84272 63.9488 10.1419 63.1848 10.435C62.6895 10.6243 62.182 10.8136 61.6683 11.0059C57.1229 12.6973 52.1092 14.5627 50.0244 19.9665C47.9456 14.6207 42.972 12.798 38.4629 11.1464C37.8821 10.9327 37.3074 10.722 36.7511 10.5083C35.9929 10.2183 35.2592 9.92212 34.5653 9.5985C31.4197 8.13917 29.072 6.16691 28.7388 2.03317C33.8011 2.5247 36.1122 6.49967 36.213 6.67675L36.21 6.6829ZM30.1694 20.7297C30.2 17.3714 31.9547 14.2909 34.8435 11.8974C35.8065 12.2973 36.7969 12.6606 37.7812 13.0209C43.5681 15.1396 49.037 17.1424 49.037 25.9472C49.037 26.4968 49.4833 26.9425 50.0336 26.9425C50.5838 26.9425 51.0302 26.4968 51.0302 25.9472C51.0302 17.0966 56.5389 15.045 62.3687 12.8774C63.2884 12.5355 64.2148 12.1905 65.1195 11.8149C68.0666 14.2207 69.8672 17.3317 69.8949 20.7297L69.9193 32.3921H30.1419L30.1694 20.7297ZM44.7787 21.5357C44.7787 18.8643 42.6021 16.6937 39.9303 16.6937C37.2585 16.6937 35.0819 18.8674 35.0819 21.5357C35.0819 24.204 37.2585 26.3777 39.9303 26.3777C42.6021 26.3777 44.7787 24.204 44.7787 21.5357ZM39.9303 24.3872C38.356 24.3872 37.0751 23.108 37.0751 21.5357C37.0751 19.9634 38.356 18.6842 39.9303 18.6842C41.5047 18.6842 42.7855 19.9634 42.7855 21.5357C42.7855 23.108 41.5047 24.3872 39.9303 24.3872ZM60.1336 26.3808C62.8086 26.3808 64.9821 24.2071 64.9821 21.5387C64.9821 18.8704 62.8058 16.6967 60.1336 16.6967C57.462 16.6967 55.2854 18.8704 55.2854 21.5387C55.2854 24.2071 57.462 26.3808 60.1336 26.3808ZM60.1336 18.6842C61.7082 18.6842 62.9892 19.9634 62.9892 21.5357C62.9892 23.108 61.7082 24.3872 60.1336 24.3872C58.5595 24.3872 57.2786 23.108 57.2786 21.5357C57.2786 19.9634 58.5595 18.6842 60.1336 18.6842ZM81.7223 79.9211C81.6087 79.7959 78.8762 76.8467 75.3817 76.8467C72.5361 76.8467 70.1975 78.8036 69.3658 79.5976L24.2358 79.5915L1.23835 79.5976L0.333496 81.5883H6.0439L0.746186 92.527H11.0726C15.2637 92.527 19.1521 90.0908 20.9771 86.3232L23.2698 81.5883H45.8241C48.4806 81.6249 52.0359 81.9146 54.5396 82.8609C54.4937 84.2073 54.6465 86.879 56.2879 88.8508C58.523 91.5347 62.5365 91.7452 62.7077 91.7546L63.6158 91.794L63.7411 90.8964C63.7654 90.7285 64.2912 86.7443 62.0567 84.061C60.9193 82.6964 59.3236 81.9695 58.006 81.5883H69.3691C70.2002 82.3817 72.5389 84.3386 75.3851 84.3386C78.8789 84.3386 81.6087 81.3894 81.7251 81.2642L82.3368 80.5927L81.7251 79.9211H81.7223ZM60.522 85.3343C61.6163 86.6468 61.8091 88.5029 61.8152 89.6326C60.7054 89.4221 58.9141 88.8907 57.8199 87.5782C56.9334 86.5127 56.6364 85.0899 56.5539 83.9907C56.5356 83.7341 56.5267 83.4931 56.5267 83.2826C57.2481 83.42 58.2537 83.6948 59.1707 84.2289C59.666 84.5159 60.1369 84.876 60.5192 85.337L60.522 85.3343ZM11.0726 90.5363H3.92542L8.25713 81.5883H21.0536L19.1797 85.4561C17.6848 88.5428 14.5025 90.5363 11.0695 90.5363H11.0726ZM75.3817 82.3484C73.6703 82.3484 72.1172 81.3102 71.2457 80.5927C72.1172 79.8752 73.6703 78.8374 75.3817 78.8374C77.0938 78.8374 78.6468 79.8752 79.5177 80.5927C78.6468 81.3102 77.0938 82.3484 75.3817 82.3484Z" fill="#434551" fill-opacity="0.25"/>
<path d="M56.5511 32.3892V34.34C56.5511 48.976 44.6747 60.8401 30.0226 60.8429L17.752 60.8368H15.5663L8.44971 76.2151H30.0074C41.1959 76.2151 51.7149 71.8614 59.6261 63.96C67.538 56.0592 71.9029 45.5537 71.9029 34.3797V32.3892H56.5539H56.5511ZM30.0135 74.1845H11.5739L16.8288 62.8336L30.0226 62.8397C45.7507 62.8336 58.544 50.0538 58.544 34.3461H69.9071C69.9071 56.3489 52.045 74.1878 30.0135 74.1878V74.1845Z" fill="#C43520"/>
</g>
</g>
</svg>
