<svg width="83" height="93" viewBox="0 0 83 93" fill="none" xmlns="http://www.w3.org/2000/svg">
<g clip-path="url(#clip0_44_43)">
<mask id="mask0_44_43" style="mask-type:luminance" maskUnits="userSpaceOnUse" x="0" y="0" width="83" height="93">
<path d="M82.3333 0.333374H0.333252V92.8604H82.3333V0.333374Z" fill="white"/>
</mask>
<g mask="url(#mask0_44_43)">
<path d="M58.0978 76.5114C60.0847 76.4599 64.3614 76.1607 66.0673 75.718C67.7727 75.2753 69.6714 74.5456 70.8821 73.1139L70.9092 73.0829C73.1443 70.3996 72.6185 66.4182 72.5935 66.2475L72.4683 65.35L71.5608 65.3899C71.3896 65.3987 67.3727 65.6093 65.141 68.2931C63.5541 70.2013 63.3619 72.7626 63.389 74.1456C61.708 74.4292 59.9439 74.5395 58.4768 74.5605H42.7792C49.0979 72.5643 54.8114 69.0715 59.632 64.2568C67.5439 56.356 71.8999 45.8504 71.8999 34.6765L71.8877 21.0479C71.8539 17.3385 70.0654 13.9345 67.0973 11.2448C70.6067 9.45267 73.3581 6.79964 73.3581 1.3317C73.3581 0.782163 72.9116 0.336426 72.3614 0.336426C66.8679 0.336426 63.753 3.7283 62.6095 5.29143C60.9495 4.64115 56.8013 3.34973 50.0303 3.34973C43.2591 3.34973 39.1078 4.64115 37.4509 5.29143C36.3106 3.73135 33.1956 0.336426 27.7022 0.336426C27.152 0.336426 26.7057 0.782163 26.7057 1.3317C26.7057 6.8515 29.408 9.53816 32.8746 11.3302C29.9613 14.0077 28.2097 17.3782 28.1761 21.051L28.1577 33.9682L9.36965 74.5605H3.68062L2.77577 76.5513C2.77577 76.5513 56.7127 76.5513 58.1006 76.5114H58.0978ZM66.6724 69.5663C67.7666 68.2532 69.5584 67.7219 70.6676 67.5113C70.6676 68.22 70.5884 69.2117 70.2615 70.1769C70.0654 70.7509 69.7845 71.3182 69.375 71.8102C68.2802 73.1228 66.489 73.6541 65.3825 73.8647C65.3825 73.8159 65.3825 73.7611 65.3825 73.709C65.4036 72.5704 65.6269 70.824 66.6724 69.5691V69.5663ZM13.5394 70.2683L16.8256 63.1642L30.0194 63.1703C45.7475 63.1642 58.5411 50.3841 58.5411 34.6765H69.9036C69.9036 56.6796 52.0418 74.5179 30.0103 74.5179H11.5706L13.0777 71.2634L13.5394 70.2683ZM23.9238 47.8318L24.0064 47.6578L28.1975 38.6026L29.1054 36.6395L30.0133 34.6765H43.1949C43.1949 41.9457 37.2981 47.8349 30.0225 47.841L23.9238 47.8349V47.8318ZM30.0225 49.8315C38.3833 49.8254 45.1881 43.0264 45.1881 34.6765H56.5509C56.5509 49.3125 44.6745 61.1763 30.0225 61.1796L17.7518 61.1735L17.8344 60.9995L23.0068 49.8254L30.0286 49.8315H30.0225ZM36.2098 7.01638C36.4696 7.4835 37.0596 7.66058 37.5365 7.4163C37.5732 7.39801 40.7769 5.80128 47.2057 5.41661C48.0861 5.3647 49.0276 5.33417 50.0303 5.33417C51.033 5.33417 51.9745 5.3647 52.855 5.41661C59.2835 5.80128 62.4876 7.39801 62.5208 7.41325C62.9979 7.66058 63.5852 7.4835 63.8478 7.01638C63.9486 6.83626 66.2596 2.8643 71.3192 2.36972C70.9735 6.44853 68.5772 8.39021 65.3853 9.85563C64.6855 10.1762 63.9486 10.4754 63.1846 10.7685C62.6893 10.9578 62.1818 11.1471 61.6681 11.3394C57.1227 13.0307 52.109 14.8961 50.0242 20.2999C47.9454 14.9541 42.9718 13.1315 38.4627 11.4798C37.8819 11.2661 37.3072 11.0555 36.7509 10.8418C35.9927 10.5517 35.259 10.2556 34.5651 9.93198C31.4195 8.47266 29.0718 6.50039 28.7386 2.36667C33.8009 2.8582 36.112 6.83321 36.2128 7.01029L36.2098 7.01638ZM30.1692 21.0632C30.1998 17.7049 31.9545 14.6244 34.8433 12.2309C35.8063 12.6308 36.7967 12.9941 37.781 13.3544C43.5679 15.4732 49.0368 17.4759 49.0368 26.2807C49.0368 26.8303 49.4831 27.276 50.0334 27.276C50.5836 27.276 51.03 26.8303 51.03 26.2807C51.03 17.4301 56.5387 15.3785 62.3685 13.2109C63.2882 12.869 64.2146 12.524 65.1193 12.1485C68.0664 14.5542 69.867 17.6652 69.8947 21.0632L69.9191 32.7256H30.1417L30.1692 21.0632ZM44.7785 21.8692C44.7785 19.1978 42.6019 17.0271 39.9301 17.0271C37.2583 17.0271 35.0817 19.2009 35.0817 21.8692C35.0817 24.5375 37.2583 26.7112 39.9301 26.7112C42.6019 26.7112 44.7785 24.5375 44.7785 21.8692ZM39.9301 24.7207C38.3558 24.7207 37.0749 23.4415 37.0749 21.8692C37.0749 20.2969 38.3558 19.0177 39.9301 19.0177C41.5045 19.0177 42.7853 20.2969 42.7853 21.8692C42.7853 23.4415 41.5045 24.7207 39.9301 24.7207ZM60.1334 26.7143C62.8084 26.7143 64.9819 24.5406 64.9819 21.8722C64.9819 19.2039 62.8056 17.0302 60.1334 17.0302C57.4618 17.0302 55.2852 19.2039 55.2852 21.8722C55.2852 24.5406 57.4618 26.7143 60.1334 26.7143ZM60.1334 19.0177C61.708 19.0177 62.989 20.2969 62.989 21.8692C62.989 23.4415 61.708 24.7207 60.1334 24.7207C58.5593 24.7207 57.2784 23.4415 57.2784 21.8692C57.2784 20.2969 58.5593 19.0177 60.1334 19.0177ZM81.7221 80.2546C81.6085 80.1293 78.876 77.1801 75.3815 77.1801C72.5359 77.1801 70.1973 79.137 69.3656 79.931L24.2356 79.9249L1.23811 79.931L0.333252 81.9217H6.04366L0.745942 92.8604H11.0724C15.2635 92.8604 19.1519 90.4242 20.9769 86.6567L23.2696 81.9217H45.8239C48.4804 81.9583 52.0357 82.2481 54.5394 83.1944C54.4935 84.5407 54.6463 87.2124 56.2877 89.1848C58.5228 91.8681 62.5363 92.0786 62.7075 92.0881L63.6156 92.1279L63.7409 91.2298C63.7652 91.062 64.291 87.0783 62.0565 84.3945C60.9191 83.0298 59.3234 82.3029 58.0058 81.9217H69.3689C70.2 82.7151 72.5387 84.672 75.3849 84.672C78.8787 84.672 81.6085 81.7228 81.7249 81.5982L82.3366 80.9261L81.7249 80.2546H81.7221ZM60.5218 85.6677C61.6161 86.9802 61.8089 88.8363 61.815 89.966C60.7052 89.7555 58.9139 89.2241 57.8197 87.9116C56.9332 86.8461 56.6362 85.4233 56.5537 84.3241C56.5354 84.0676 56.5265 83.8266 56.5265 83.616C57.2479 83.7534 58.2535 84.0282 59.1705 84.5623C59.6658 84.8493 60.1367 85.2095 60.519 85.6704L60.5218 85.6677ZM11.0724 90.8697H3.92518L8.25689 81.9217H21.0534L19.1795 85.7896C17.6846 88.8762 14.5023 90.8697 11.0693 90.8697H11.0724ZM75.3815 82.6819C73.6701 82.6819 72.117 81.6436 71.2455 80.9261C72.117 80.2086 73.6701 79.1708 75.3815 79.1708C77.0936 79.1708 78.6466 80.2086 79.5175 80.9261C78.6466 81.6436 77.0936 82.6819 75.3815 82.6819Z" fill="#434551" fill-opacity="0.25"/>
<path d="M58.5438 34.6766V32.7257H43.1949V34.6766C43.1949 41.9458 37.298 47.835 30.0224 47.8411L23.9238 47.835H21.738L14.6428 63.167H16.8286L30.0224 63.1731C45.7505 63.167 58.5438 50.3873 58.5438 34.6796V34.6766ZM17.7487 61.1736L23.0006 49.8255L30.0224 49.8316C38.3863 49.8255 45.188 43.0265 45.188 34.6766H56.5509C56.5509 49.3126 44.6745 61.1763 30.0224 61.1797L17.7518 61.1736H17.7487Z" fill="#F7AA0F"/>
</g>
</g>
<defs>
<clipPath id="clip0_44_43">
<rect width="82" height="92.527" fill="white" transform="translate(0.333252 0.333374)"/>
</clipPath>
</defs>
</svg>
